#!OML:ASF F:\VICON\USERDATA\INSTALL\rory3\rory3.ASF
:FULLY-SPECIFIED
:DEGREES
48
root 0.277175 15.7734 -34.0359 29.4148 -3.0892 -6.81929
lowerback -2.57618 3.88431 9.39328
upperback -4.90321 5.19822 0.866301
thorax -2.93738 2.31294 -4.29942
lowerneck -15.6341 -4.88008 -7.34415
upperneck 4.83731 -5.53319 5.23753
head 4.307 -2.56952 2.33982
rclavicle 1.0138e-014 -5.1684e-015
rhumerus -16.3249 20.7586 -81.5668
rradius 69.8187
rwrist 7.05896
rhand -26.9305 -50.023
rfingers 7.12502
rthumb -0.352958 279.998
lclavicle 1.0138e-014 -5.1684e-015
lhumerus -68.2345 -9.34427 83.022
lradius 48.7144
lwrist 7.32409
lhand -36.5263 -48.5761
lfingers 7.12502
lthumb -9.61762 -18.8156
rfemur -18.2574 11.48 30.2596
rtibia 46.1816
rfoot -15.1528 -1.39111
rtoes -34.6988
lfemur -80.5429 5.72534 -20.7705
ltibia 69.9403
lfoot -21.702 3.53915
ltoes -15.2728
49
root 0.263972 15.9084 -33.6859 29.4957 -3.17182 -6.76758
lowerback -2.26397 3.97064 9.48112
upperback -5.72072 5.40191 0.656328
thorax -3.92644 2.33585 -4.62124
lowerneck -14.1615 -4.83473 -7.3631
upperneck 4.94579 -5.60002 5.4431
head 4.1202 -2.61364 2.42541
rclavicle -2.73329e-014 -1.03368e-014
rhumerus -18.3526 21.0461 -82.4046
rradius 70.1072
rwrist 6.4217
rhand -26.8969 -50.5412
rfingers 7.12502
rthumb -0.320486 279.479
lclavicle -2.73329e-014 -1.03368e-014
lhumerus -70.0412 -9.07264 82.2858
lradius 48.899
lwrist 7.58898
lhand -34.5873 -42.5212
lfingers 7.12502
lthumb -7.74646 -12.6831
rfemur -18.0434 11.6003 29.836
rtibia 45.6685
rfoot -10.4717 1.22241
rtoes -31.9603
lfemur -79.4276 5.51356 -21.0384
ltibia 66.9178
lfoot -20.7313 2.86774
ltoes -16.1291
50
root 0.262953 16.0176 -33.3353 29.5274 -3.00747 -6.74959
lowerback -2.79826 4.1556 9.49046
upperback -5.8621 5.59622 0.671359
thorax -3.74801 2.43849 -4.57009
lowerneck -13.6484 -5.04283 -7.34749
upperneck 4.95398 -5.91145 5.36073
head 4.0577 -2.77927 2.38013
rclavicle -9.07452e-014 -3.18055e-014
rhumerus -19.2093 21.0688 -82.2778
rradius 70.1668
rwrist 5.80172
rhand -26.7524 -50.6221
rfingers 7.12502
rthumb -0.180961 279.398
lclavicle -9.07452e-014 -3.18055e-014
lhumerus -70.4545 -8.79146 81.826
lradius 48.886
lwrist 7.64222
lhand -35.2288 -52.5029
lfingers 7.12502
lthumb -8.36562 -22.6886
rfemur -17.7362 11.1425 29.5446
rtibia 45.4084
rfoot -5.79845 3.43114
rtoes -29.927
lfemur -78.3326 5.01775 -21.0941
ltibia 64.39
lfoot -20.9011 1.90538
ltoes -13.4381
51
root 0.257644 16.1083 -32.9987 30.4626 -2.50061 -6.71986
lowerback -3.68022 4.08615 9.77674
upperback -6.20314 5.41743 0.607004
thorax -3.61529 2.33313 -4.74534
lowerneck -14.6972 -5.10763 -7.3219
upperneck 5.68728 -5.95091 5.37225
head 4.4529 -2.78196 2.35006
rclavicle 4.42296e-014 2.82274e-014
rhumerus -19.5638 21.5029 -82.4458
rradius 70.0477
rwrist 5.47518
rhand -27.051 -50.0573
rfingers 7.12502
rthumb -0.469321 279.963
lclavicle 4.42296e-014 2.82274e-014
lhumerus -70.4295 -8.0953 81.071
lradius 48.8386
lwrist 8.28447
lhand -34.8285 -56.0484
lfingers 7.12502
lthumb -7.97927 -26.219
rfemur -18.6948 10.4666 29.2835
rtibia 45.7888
rfoot -1.59719 4.83256
rtoes -32.4814
lfemur -78.356 4.28963 -21.076
ltibia 62.139
lfoot -19.6722 1.56017
ltoes -13.8621
52
root 0.260992 16.2065 -32.6292 30.0125 -2.70528 -7.10243
lowerback -3.81215 4.24684 10.1417
upperback -6.21848 5.61512 0.737719
thorax -3.51421 2.42413 -4.7913
lowerneck -13.9607 -5.08114 -7.34855
upperneck 5.66885 -5.95403 5.27409
head 4.3277 -2.8014 2.33758
rclavicle 1.26228e-014 -3.18055e-015
rhumerus -20.5857 21.8759 -82.5864
rradius 69.8972
rwrist 5.47039
rhand -27.2095 -49.489
rfingers 7.12502
rthumb -0.622433 280.532
lclavicle 1.26228e-014 -3.18055e-015
lhumerus -70.8437 -7.59142 80.7278
lradius 48.6501
lwrist 8.67841
lhand -34.8391 -52.5235
lfingers 7.12502
lthumb -7.9895 -22.6945
rfemur -17.9395 10.0335 29.218
rtibia 46.2166
rfoot 2.34284 6.3545
rtoes -29.4229
lfemur -76.5499 4.29714 -20.7795
ltibia 60.6499
lfoot -19.1126 1.35516
ltoes -12.7774
53
root 0.264688 16.2799 -32.2739 30.341 -2.54753 -7.34487
lowerback -5.33877 4.41413 10.3737
upperback -5.68319 5.59854 0.915246
thorax -2.09359 2.50024 -4.58609
lowerneck -15.2543 -5.24881 -7.27521
upperneck 6.0738 -6.08568 5.03625
head 4.65655 -2.85961 2.21145
rclavicle 1.33186e-014 3.18055e-015
rhumerus -19.9191 22.071 -81.9947
rradius 69.3322
rwrist 5.61771
rhand -27.0417 -48.5137
rfingers 7.12502
rthumb -0.460352 281.507
lclavicle 1.33186e-014 3.18055e-015
lhumerus -69.5965 -6.91867 80.5171
lradius 48.4829
lwrist 9.04678
lhand -35.5741 -42.5048
lfingers 7.12502
lthumb -8.69877 -12.704
rfemur -18.3579 9.42293 29.0726
rtibia 47.0447
rfoot 5.8831 7.60945
rtoes -27.3331
lfemur -75.7622 3.86504 -20.418
ltibia 59.61
lfoot -18.1357 0.727181
ltoes -10.1809
